<?xml version="1.0" standalone="no"?>
<!DOCTYPE svg PUBLIC "-//W3C//DTD SVG 20010904//EN"
 "http://www.w3.org/TR/2001/REC-SVG-20010904/DTD/svg10.dtd">
<svg version="1.0" xmlns="http://www.w3.org/2000/svg"
 width="649.000000pt" height="759.000000pt" viewBox="0 0 649.000000 759.000000"
 preserveAspectRatio="xMidYMid meet">

<g transform="translate(0.000000,759.000000) scale(0.100000,-0.100000)"
fill="#000000" stroke="none">
<path d="M2727 7083 c-284 -164 -516 -300 -517 -303 0 -3 238 -144 529 -313
l530 -308 521 307 c286 169 519 308 518 309 -13 11 -1049 605 -1055 605 -5 0
-241 -134 -526 -297z"/>
<path d="M2100 6353 l0 -258 285 -163 285 -164 2 -343 3 -344 247 142 248 142
0 316 0 317 -527 303 c-291 166 -531 304 -535 306 -5 2 -8 -112 -8 -254z"/>
<path d="M3885 6301 l-510 -298 -2 -329 -3 -329 223 -128 222 -127 5 341 5
342 288 164 287 165 0 249 c0 137 -1 249 -2 248 -2 0 -232 -134 -513 -298z"/>
<path d="M812 6027 c-287 -166 -522 -305 -522 -308 0 -11 1041 -610 1054 -607
18 4 1046 602 1046 608 -1 4 -1031 601 -1049 607 -3 1 -241 -134 -529 -300z"/>
<path d="M4623 6027 c-287 -166 -523 -304 -523 -307 0 -10 1060 -611 1073
-608 20 5 1027 600 1027 607 0 5 -1045 612 -1052 610 -2 0 -238 -136 -525
-302z"/>
<path d="M190 4937 l0 -614 518 -298 c284 -164 520 -300 525 -302 4 -2 7 272
7 609 l0 613 -516 300 c-284 165 -520 302 -525 303 -5 2 -9 -264 -9 -611z"/>
<path d="M1958 5248 l-518 -302 0 -613 0 -613 48 27 c27 16 135 78 240 138
l192 110 0 327 0 326 285 164 285 163 0 288 c0 158 -3 287 -7 287 -5 0 -241
-136 -525 -302z"/>
<path d="M4000 5267 l0 -282 295 -170 295 -169 0 -331 0 -331 207 -119 c113
-66 217 -126 230 -133 l23 -13 0 618 0 618 -519 298 c-285 163 -521 297 -524
297 -4 0 -7 -127 -7 -283z"/>
<path d="M5768 5237 l-518 -302 0 -608 0 -609 33 19 c17 10 254 147 525 303
l492 284 0 608 c0 334 -3 608 -7 607 -5 0 -241 -136 -525 -302z"/>
<path d="M2840 4974 c-223 -130 -457 -265 -521 -302 l-117 -68 525 -304 c288
-168 532 -305 542 -305 19 0 1031 593 1031 604 0 7 -1042 612 -1051 610 -2 0
-186 -106 -409 -235z"/>
<path d="M2100 3822 c0 -475 3 -612 13 -620 6 -5 244 -144 527 -307 283 -164
518 -299 523 -302 4 -2 7 274 7 614 l0 618 -518 297 c-284 163 -525 300 -534
303 -17 7 -18 -26 -18 -603z"/>
<path d="M3878 4122 l-508 -296 0 -609 0 -609 33 20 c19 11 251 145 515 297
l482 278 0 609 c0 334 -3 608 -7 607 -5 0 -236 -134 -515 -297z"/>
<path d="M575 3694 c-82 -47 -186 -105 -231 -129 l-81 -43 531 -307 c292 -170
534 -310 538 -312 4 -2 138 72 298 164 l290 168 0 269 c0 210 -3 267 -12 263
-7 -3 -138 -77 -292 -165 l-278 -160 -294 169 c-162 93 -300 169 -307 169 -6
0 -79 -39 -162 -86z"/>
<path d="M5455 3610 l-289 -169 -31 19 c-26 15 -143 82 -473 268 l-72 41 2
-271 3 -272 250 -144 c138 -78 266 -152 286 -164 l36 -20 531 313 531 313 -37
17 c-20 9 -124 67 -231 128 -106 61 -198 111 -205 111 -6 -1 -141 -77 -301
-170z"/>
<path d="M190 2732 l1 -617 482 -278 c265 -152 501 -289 525 -303 l42 -25 0
614 0 615 -52 30 c-29 16 -266 154 -525 305 l-473 275 0 -616z"/>
<path d="M5775 3035 l-520 -304 -3 -610 -2 -610 232 134 c128 74 364 210 525
302 l292 168 1 613 c0 336 -1 612 -2 611 -2 0 -237 -137 -523 -304z"/>
<path d="M1710 2896 l-265 -154 -3 -611 c-1 -336 1 -611 5 -611 5 0 112 60
238 134 l230 134 3 270 2 270 285 164 285 163 -2 54 -3 53 -250 144 c-137 79
-252 144 -255 144 -3 0 -125 -69 -270 -154z"/>
<path d="M4260 2901 l-255 -147 -3 -44 -3 -45 296 -170 295 -169 0 -276 1
-275 223 -127 c123 -71 226 -128 230 -128 3 0 6 276 6 614 l0 613 -263 152
c-145 83 -266 151 -268 150 -2 0 -119 -67 -259 -148z"/>
<path d="M2467 2438 l-277 -161 52 -31 c29 -18 272 -159 540 -315 l487 -282
525 308 c289 169 525 310 525 313 1 5 -533 315 -561 325 -12 5 -97 -39 -262
-133 l-244 -140 -241 139 c-132 77 -247 139 -253 138 -7 0 -138 -72 -291 -161z"/>
<path d="M2100 1499 l0 -614 477 -275 c262 -151 503 -290 535 -308 l58 -33 -2
611 -3 612 -520 305 c-286 168 -525 308 -532 310 -10 4 -13 -117 -13 -608z"/>
<path d="M3885 1797 l-510 -303 -3 -603 -2 -603 32 19 c18 11 250 145 516 298
l482 278 0 609 c0 334 -1 608 -3 608 -1 0 -232 -136 -512 -303z"/>
</g>
</svg>
